name GIL08_slow4.mot
datacolumns 153
datarows 4
range 0.54166675 0.56666672
endheader

                time	           pelvis_tx	           pelvis_ty	           pelvis_tz	         pelvis_tilt	         pelvis_list	     pelvis_rotation	       hip_flexion_r	     hip_adduction_r	      hip_rotation_r	        knee_angle_r	       ankle_angle_r	    subtalar_angle_r	         mtp_angle_r	       hip_flexion_l	     hip_adduction_l	      hip_rotation_l	        knee_angle_l	       ankle_angle_l	    subtalar_angle_l	         mtp_angle_l	    lumbar_extension	      lumbar_bending	     lumbar_rotation	     ground_force_vx	     ground_force_vy	     ground_force_vz	     ground_force_px	     ground_force_py	     ground_force_pz	     ground_force_vx	     ground_force_vy	     ground_force_vz	     ground_force_px	     ground_force_py	     ground_force_pz	     ground_torque_x	     ground_torque_y	     ground_torque_z	     ground_torque_x	     ground_torque_y	     ground_torque_z	    ground_marker_px	    ground_marker_py	    ground_marker_pz	    ground_marker_px	    ground_marker_py	    ground_marker_pz	    ground_marker_px	    ground_marker_py	    ground_marker_pz	    ground_marker_px	    ground_marker_py	    ground_marker_pz	    ground_marker_px	    ground_marker_py	    ground_marker_pz	    ground_marker_px	    ground_marker_py	    ground_marker_pz	    ground_marker_px	    ground_marker_py	    ground_marker_pz	    ground_marker_px	    ground_marker_py	    ground_marker_pz	    ground_marker_px	    ground_marker_py	    ground_marker_pz	    ground_marker_px	    ground_marker_py	    ground_marker_pz	    ground_marker_px	    ground_marker_py	    ground_marker_pz	    ground_marker_px	    ground_marker_py	    ground_marker_pz	    ground_marker_px	    ground_marker_py	    ground_marker_pz	    ground_marker_px	    ground_marker_py	    ground_marker_pz	    ground_marker_px	    ground_marker_py	    ground_marker_pz	    ground_marker_px	    ground_marker_py	    ground_marker_pz	    ground_marker_px	    ground_marker_py	    ground_marker_pz	    ground_marker_px	    ground_marker_py	    ground_marker_pz	    ground_marker_px	    ground_marker_py	    ground_marker_pz	    ground_marker_px	    ground_marker_py	    ground_marker_pz	    ground_marker_px	    ground_marker_py	    ground_marker_pz	    ground_marker_px	    ground_marker_py	    ground_marker_pz	    ground_marker_px	    ground_marker_py	    ground_marker_pz	    ground_marker_px	    ground_marker_py	    ground_marker_pz	    ground_marker_px	    ground_marker_py	    ground_marker_pz	    ground_marker_px	    ground_marker_py	    ground_marker_pz	    ground_marker_px	    ground_marker_py	    ground_marker_pz	    ground_marker_px	    ground_marker_py	    ground_marker_pz	    ground_marker_px	    ground_marker_py	    ground_marker_pz	    ground_marker_px	    ground_marker_py	    ground_marker_pz	    ground_marker_px	    ground_marker_py	    ground_marker_pz	    ground_marker_px	    ground_marker_py	    ground_marker_pz	    ground_marker_px	    ground_marker_py	    ground_marker_pz	    ground_marker_px	    ground_marker_py	    ground_marker_pz	    ground_marker_px	    ground_marker_py	    ground_marker_pz	    ground_marker_px	    ground_marker_py	    ground_marker_pz	    ground_marker_px	    ground_marker_py	    ground_marker_pz	
          0.54166675	         -1.94382668	          0.98828268	          0.19013086	          4.14215040	         -1.20897949	          0.01681443	         13.37129021	         -0.82379502	          3.80984783	        -23.88609505	         12.63621140	          0.00000000	          0.00000000	         -7.81942654	         -2.27966809	          6.79437780	         -5.90512133	          8.98587894	          0.00000000	          0.00000000	        -20.33723068	         -3.64722061	          2.42461920	          0.00000000	          0.00000000	          0.00000000	         -1.65949500	          0.00000000	          0.25520789	          8.58868278	        567.53551283	         14.75669904	         -2.04607178	          0.00000000	          0.15050842	          0.00000000	          0.00000000	          0.00000000	          0.00000000	         -1.14878308	          0.00000000	         -2.02423286	          0.90164632	          0.19682971	         -2.02293301	          0.89303166	          0.24566641	         -2.02327156	          0.89080852	          0.13912018	         -1.89640582	          0.49237207	          0.25967011	         -2.04969192	          0.48007950	          0.13139620	         -1.94328964	          0.07710197	          0.27129710	         -2.12341213	          0.06827043	          0.15685661	         -1.94382668	          0.98828268	          0.19013086	         -1.94349754	          0.99044436	          0.29373303	         -1.94415569	          0.98612094	          0.08652870	         -2.14391375	          1.01545227	          0.23648354	         -2.14606237	          1.01681018	          0.15184592	         -1.89270401	          0.49561357	          0.31896630	         -2.04270387	          0.48074111	          0.07231169	         -1.90611565	          0.49661490	          0.20462619	         -2.06630468	          0.48138374	          0.17704183	         -1.95034826	          0.07894304	          0.30859032	         -2.12594032	          0.06628899	          0.11748745	         -1.94569337	          0.08531149	          0.23816165	         -2.11682439	          0.07749017	          0.18588977	         -2.07027125	          1.47064817	          0.16276546	         -1.96916234	          1.40967333	          0.23949581	         -1.97816122	          1.39930928	          0.09300432	         -1.98623753	          1.40522337	          0.16299145	         -1.94324267	          1.20486331	          0.16775088	         -1.89633608	          0.59814262	          0.40391409	         -1.89672220	          0.59625912	          0.12709697	         -1.88964128	          0.66272163	          0.33287475	         -1.96480644	          0.66203535	          0.08409123	         -1.86986578	          0.58397102	          0.31100309	         -1.98180234	          0.57661074	          0.08731236	         -1.93404090	          0.15829431	          0.37456536	         -2.00318384	          0.16472681	          0.15637478	         -1.94441903	          0.21514842	          0.31138074	         -2.06139731	          0.22282092	          0.14020148	         -1.82645738	          0.06545313	          0.26610613	         -1.99510229	          0.04103974	          0.14981967	
          0.55000007	         -1.93888998	          0.98775458	          0.19018449	          4.15034676	         -1.33694386	          0.17614205	         13.83057785	         -0.68455958	          3.52073622	        -22.88839149	         12.07054043	          0.00000000	          0.00000000	         -8.09096146	         -2.42484283	          7.09510326	         -6.00680161	          9.31011486	          0.00000000	          0.00000000	        -20.45508385	         -3.45237923	          2.30449843	          0.00000000	          0.00000000	          0.00000000	         -1.65907617	          0.00000000	          0.25550815	          8.55978511	        568.31532274	         14.76293931	         -2.04197449	          0.00000000	          0.15063712	          0.00000000	          0.00000000	          0.00000000	          0.00000000	         -1.13411084	          0.00000000	         -2.01897907	          0.90112233	          0.19680530	         -2.01781821	          0.89259934	          0.24613623	         -2.01848221	          0.89018089	          0.13959578	         -1.88799477	          0.49292555	          0.25942400	         -2.04683471	          0.47966880	          0.13167328	         -1.92421830	          0.07652857	          0.27013689	         -2.12332249	          0.06836203	          0.15693817	         -1.93888998	          0.98775458	          0.19018449	         -1.93824399	          0.99010694	          0.29381412	         -1.93953598	          0.98540223	          0.08655485	         -2.13870525	          1.01487863	          0.23645948	         -2.14088058	          1.01621270	          0.15183605	         -1.88436842	          0.49607518	          0.31872982	         -2.03969884	          0.48031589	          0.07260626	         -1.89844859	          0.49692574	          0.20454970	         -2.06323385	          0.48109815	          0.17730346	         -1.93135917	          0.07810915	          0.30742642	         -2.12580276	          0.06640473	          0.11756475	         -1.92682469	          0.08469001	          0.23703915	         -2.11669111	          0.07751861	          0.18599638	         -2.06478047	          1.47017133	          0.16307276	         -1.96364510	          1.40887630	          0.23999609	         -1.97269535	          1.39862990	          0.09314628	         -1.98074484	          1.40451157	          0.16331409	         -1.93812501	          1.20406711	          0.16789936	         -1.88896537	          0.59850377	          0.40381032	         -1.89311445	          0.59522730	          0.12778129	         -1.88279808	          0.66310573	          0.33276814	         -1.96082413	          0.66136611	          0.08464731	         -1.86257577	          0.58453178	          0.31087407	         -1.97815502	          0.57604319	          0.08779740	         -1.91716492	          0.15765975	          0.37357643	         -2.00236034	          0.16397107	          0.15667002	         -1.92877853	          0.21433739	          0.31047019	         -2.06005669	          0.22237875	          0.14040303	         -1.80697584	          0.06674992	          0.26511455	         -1.99498200	          0.04098354	          0.14982808	
          0.55833340	         -1.93386817	          0.98720866	          0.19026464	          4.17611122	         -1.45246696	          0.32251021	         14.24478722	         -0.55790579	          3.24949574	        -21.88863754	         11.42783070	          0.00000000	          0.00000000	         -8.39790154	         -2.55946040	          7.37366676	         -6.09083605	          9.63784218	          0.00000000	          0.00000000	        -20.61921501	         -3.22594023	          2.22111034	          0.00000000	          0.00000000	          0.00000000	         -1.65854822	          0.00000000	          0.25579416	          8.34123988	        569.29689359	         14.87785309	         -2.03771143	          0.00000000	          0.15074142	          0.00000000	          0.00000000	          0.00000000	          0.00000000	         -1.11042419	          0.00000000	         -2.01359606	          0.90064907	          0.19680123	         -2.01260185	          0.89211547	          0.24659438	         -2.01356387	          0.88952100	          0.14006037	         -1.87970173	          0.49342358	          0.25919908	         -2.04397440	          0.47925121	          0.13194525	         -1.90543163	          0.07619604	          0.26905218	         -2.12322307	          0.06845041	          0.15698840	         -1.93386817	          0.98720866	          0.19026464	         -1.93293214	          0.98973292	          0.29391667	         -1.93480408	          0.98468441	          0.08661262	         -2.13347769	          1.01422727	          0.23649772	         -2.13569045	          1.01555049	          0.15186967	         -1.87614870	          0.49648324	          0.31851405	         -2.03669739	          0.47987983	          0.07289527	         -1.89083493	          0.49707887	          0.20455937	         -2.06001353	          0.48098198	          0.17792232	         -1.91265953	          0.07752223	          0.30633488	         -2.12566400	          0.06652081	          0.11761115	         -1.90815818	          0.08433445	          0.23594557	         -2.11661935	          0.07755909	          0.18607588	         -2.05926418	          1.46963811	          0.16345276	         -1.95817697	          1.40793550	          0.24045919	         -1.96730769	          1.39794362	          0.09328590	         -1.97531593	          1.40373385	          0.16361997	         -1.93317688	          1.20318007	          0.16784823	         -1.88165820	          0.59880507	          0.40371266	         -1.88945186	          0.59419537	          0.12844400	         -1.87608039	          0.66341370	          0.33267847	         -1.95673597	          0.66069674	          0.08511712	         -1.85536277	          0.58497715	          0.31078002	         -1.97442091	          0.57541549	          0.08838676	         -1.90056682	          0.15721320	          0.37264821	         -2.00152087	          0.16321582	          0.15691730	         -1.91337407	          0.21368000	          0.30965832	         -2.05884767	          0.22200102	          0.14053813	         -1.78777850	          0.06808603	          0.26424989	         -1.99488127	          0.04093977	          0.14978926	
          0.56666672	         -1.92870450	          0.98666370	          0.19036847	          4.22560787	         -1.54390693	          0.43355876	         14.60407066	         -0.45102349	          3.01249123	        -20.88839149	         10.71470451	          0.00000000	          0.00000000	         -8.75753021	         -2.66770935	          7.59971333	         -6.15166998	          9.96539688	          0.00000000	          0.00000000	        -20.80036926	         -3.01136661	          2.10291195	          0.00000000	          0.00000000	          0.00000000	         -1.65793738	          0.00000000	          0.25603778	          8.14436182	        569.90602074	         15.08982468	         -2.03342822	          0.00000000	          0.15073087	          0.00000000	          0.00000000	          0.00000000	          0.00000000	         -1.05957007	          0.00000000	         -2.00815058	          0.90015113	          0.19681148	         -2.00724030	          0.89158100	          0.24699154	         -2.00842762	          0.88884521	          0.14046332	         -1.87150729	          0.49385807	          0.25900328	         -2.04109335	          0.47883123	          0.13220169	         -1.88695693	          0.07608297	          0.26804352	         -2.12311912	          0.06853209	          0.15700281	         -1.92870450	          0.98666370	          0.19036847	         -1.92754889	          0.98932612	          0.29404205	         -1.92986000	          0.98400122	          0.08669491	         -2.12822366	          1.01350188	          0.23658688	         -2.13048482	          1.01482594	          0.15194494	         -1.86803687	          0.49683410	          0.31832740	         -2.03368902	          0.47943088	          0.07316723	         -1.88337147	          0.49713135	          0.20460215	         -2.05687332	          0.48083863	          0.17836361	         -1.89427495	          0.07716016	          0.30531666	         -2.12551975	          0.06663159	          0.11762166	         -1.88955534	          0.08417474	          0.23488913	         -2.11659598	          0.07760669	          0.18610722	         -2.05371547	          1.46898246	          0.16382785	         -1.95281816	          1.40693569	          0.24101511	         -1.96184731	          1.39719141	          0.09352657	         -1.96990132	          1.40289092	          0.16400759	         -1.92820656	          1.20223820	          0.16793945	         -1.87441146	          0.59904283	          0.40363729	         -1.88574862	          0.59315741	          0.12904713	         -1.86939609	          0.66368473	          0.33251595	         -1.95255923	          0.65996820	          0.08558359	         -1.84823537	          0.58536750	          0.31065995	         -1.97066736	          0.57477474	          0.08889497	         -1.88425934	          0.15693586	          0.37178367	         -2.00069332	          0.16245575	          0.15713458	         -1.89833844	          0.21315534	          0.30887517	         -2.05770540	          0.22171004	          0.14069994	         -1.76891124	          0.06943996	          0.26345402	         -1.99480271	          0.04089176	          0.14973979	
